<?xml version="1.0" standalone="no"?>
<!DOCTYPE svg PUBLIC "-//W3C//DTD SVG 20010904//EN"
 "http://www.w3.org/TR/2001/REC-SVG-20010904/DTD/svg10.dtd">
<svg version="1.0" xmlns="http://www.w3.org/2000/svg"
 width="520.000000pt" height="520.000000pt" viewBox="0 0 520.000000 520.000000"
 preserveAspectRatio="xMidYMid meet">
<metadata>
Created by potrace 1.14, written by Peter Selinger 2001-2017
</metadata>
<g transform="translate(0.000000,520.000000) scale(0.100000,-0.100000)"
fill="#000000" stroke="none">
<path d="M0 2600 l0 -2600 2600 0 2600 0 0 2600 0 2600 -2600 0 -2600 0 0
-2600z m5100 0 l0 -2500 -2500 0 -2500 0 0 2500 0 2500 2500 0 2500 0 0 -2500z"/>
<path d="M3325 4928 c-16 -6 -149 -78 -293 -160 -145 -81 -268 -148 -273 -148
-4 0 -24 11 -43 24 -75 51 -202 59 -282 18 l-39 -20 -59 35 c-118 69 -262 142
-323 162 -159 54 -380 7 -574 -120 -158 -104 -289 -243 -372 -396 -40 -74 -42
-82 -42 -163 0 -69 5 -93 23 -127 78 -148 222 -205 382 -152 l71 23 95 -47
c56 -28 94 -53 94 -62 0 -30 43 -141 72 -188 17 -26 50 -61 74 -78 l44 -30 0
-902 c0 -574 -4 -933 -11 -987 -20 -163 -92 -329 -172 -396 -46 -38 -102 -60
-187 -73 -98 -15 -168 -48 -235 -112 -135 -128 -175 -362 -90 -529 75 -148
239 -226 422 -201 151 21 351 93 793 286 152 66 252 104 265 101 37 -10 168
-93 295 -186 193 -142 275 -178 435 -187 304 -17 563 93 760 324 69 81 220
295 256 363 20 37 24 60 24 130 0 78 -3 90 -35 149 -105 194 -260 246 -459
156 -67 -30 -92 -36 -125 -32 -45 5 -152 62 -323 171 l-113 71 0 911 0 911 82
8 c219 19 392 99 539 252 83 85 136 162 197 289 45 94 47 103 47 184 0 72 -4
92 -27 136 -14 27 -44 66 -66 86 -46 42 -136 78 -193 78 -22 0 -53 6 -68 14
-51 27 -138 132 -181 220 -50 102 -105 159 -177 186 -59 22 -158 26 -208 8z
m121 -340 c107 -212 289 -369 447 -385 31 -3 57 -8 57 -10 0 -20 -91 -172
-133 -224 -91 -109 -198 -169 -339 -189 -124 -18 -245 19 -347 106 -21 19 -42
34 -45 34 -3 0 -6 -553 -6 -1229 l0 -1229 38 -15 c20 -8 91 -50 157 -93 162
-105 335 -201 414 -231 109 -41 225 -32 358 27 l62 28 16 -24 c16 -24 14 -28
-71 -152 -121 -175 -226 -279 -335 -331 -98 -47 -198 -66 -310 -58 -89 6 -130
24 -239 107 -199 151 -379 252 -484 271 -73 13 -88 8 -365 -112 -460 -202
-672 -279 -774 -282 -54 -1 -62 1 -84 28 -23 26 -25 35 -20 87 9 103 36 124
191 147 105 15 185 61 287 161 98 97 143 169 189 309 67 199 63 131 67 1291 3
748 1 1066 -7 1092 -14 48 -55 71 -116 66 -41 -3 -44 -1 -54 26 -6 16 -8 31
-5 34 5 5 1418 801 1422 802 2 0 15 -24 29 -52z m-1428 -82 c59 -30 145 -76
192 -103 96 -55 160 -83 193 -83 12 0 50 13 85 30 34 16 62 27 62 24 0 -23
-51 -92 -114 -154 -83 -82 -220 -171 -299 -195 -104 -31 -165 -16 -387 93
-148 73 -158 76 -235 80 -61 2 -94 -1 -137 -17 l-58 -20 14 27 c74 143 273
309 431 358 85 27 136 19 253 -40z"/>
<path d="M2930 4214 c-24 -13 -59 -24 -77 -24 l-33 0 0 -1325 0 -1325 -51 -28
c-114 -61 -265 -167 -454 -318 -394 -314 -522 -394 -681 -430 -71 -15 -74 -17
-74 -45 0 -28 1 -29 53 -29 76 0 144 23 292 98 182 92 310 182 450 313 229
215 317 267 540 324 l90 23 3 1396 c1 768 -1 1395 -5 1395 -5 -1 -28 -12 -53
-25z"/>
</g>
</svg>
